# Blender 3.4.1
# www.blender.org
o Hedron
v 0.000000 -1.241874 -0.707107
v 0.000000 -2.480744 0.000000
v 1.536239 -0.342357 0.000000
v -1.536239 -0.342357 0.000000
v 0.000000 -1.241874 0.707107
v 0.000000 0.281265 -0.707107
v 0.000000 -0.957605 0.000000
v 1.536239 -0.035328 0.000000
v -1.536239 -0.035328 0.000000
v 0.000000 0.281265 0.707107
v 0.000000 2.502590 0.000000
vn 0.5053 0.8630 -0.0000
vn 0.5679 -0.4080 0.7148
vn -0.5679 -0.4080 0.7148
vn 0.5679 -0.4080 -0.7148
vn -0.5679 -0.4080 -0.7148
vn -0.5053 0.8630 -0.0000
vn -0.4480 0.2712 -0.8519
vn 0.2852 -0.4751 0.8324
vn -0.2852 -0.4751 0.8324
vn 0.2852 -0.4751 -0.8324
vn -0.2852 -0.4751 -0.8324
vn 0.4480 0.2712 -0.8519
vn 0.4480 0.2712 0.8519
vn -0.4480 0.2712 0.8519
vt 0.625000 0.500000
vt 0.375000 1.000000
vt 0.375000 0.000000
vt 0.375000 0.500000
vt 0.625000 0.750000
vt 0.375000 0.750000
vt 0.375000 0.250000
vt 0.625000 0.250000
vt 0.625000 1.000000
vt 0.625000 0.000000
vt 0.625000 0.500000
vt 0.375000 1.000000
vt 0.375000 0.000000
vt 0.375000 0.500000
vt 0.625000 0.750000
vt 0.375000 0.750000
vt 0.375000 0.250000
vt 0.625000 0.250000
vt 0.625000 0.000000
vt 0.625000 1.000000
vt 0.000000 0.000000
s 0
f 5/10/1 1/1/1 4/8/1
f 3/5/2 5/9/2 2/2/2
f 2/3/3 5/10/3 4/7/3
f 2/4/4 1/1/4 3/6/4
f 4/8/5 1/1/5 2/4/5
f 3/6/6 1/1/6 5/10/6
f 9/18/7 11/21/7 6/11/7
f 8/15/8 10/20/8 7/12/8
f 7/13/9 10/19/9 9/17/9
f 7/14/10 6/11/10 8/16/10
f 9/18/11 6/11/11 7/14/11
f 8/16/12 6/11/12 11/21/12
f 10/20/13 8/16/13 11/21/13
f 9/18/14 10/20/14 11/21/14
